<svg
    width="24"
    height="24"
    viewBox="0 0 24 24"
    fill="none"
    xmlns="http://www.w3.org/2000/svg"
  >
    <rect x="1.5" y="7.5" width="21" height="9.5" rx="1.5" stroke="black" />
    <path
      d="M15 11.5C14.2 11.5 14 11.5 14 11.5"
      stroke="black"
      stroke-linecap="round"
      stroke-linejoin="round"
    />
    <path
      d="M10 13.5C9.2 13.5 9 13.5 9 13.5"
      stroke="black"
      stroke-linecap="round"
      stroke-linejoin="round"
    />
    <path
      d="M14 13.5C13.2 13.5 13 13.5 13 13.5"
      stroke="black"
      stroke-linecap="round"
      stroke-linejoin="round"
    />
    <path
      d="M17 13.5C16.2 13.5 16 13.5 16 13.5"
      stroke="black"
      stroke-linecap="round"
      stroke-linejoin="round"
    />
    <path
      d="M9 11.5C7.4 11.5 7 11.5 7 11.5"
      stroke="black"
      stroke-linecap="round"
      stroke-linejoin="round"
    />
    <path
      d="M19 11.5C17.4 11.5 17 11.5 17 11.5"
      stroke="black"
      stroke-linecap="round"
      stroke-linejoin="round"
    />
    <path
      d="M18 9.5C15.6 9.5 15 9.5 15 9.5"
      stroke="black"
      stroke-linecap="round"
      stroke-linejoin="round"
    />
    <path
      d="M18 15.5C17.2 15.5 17 15.5 17 15.5"
      stroke="black"
      stroke-linecap="round"
      stroke-linejoin="round"
    />
    <path
      d="M7 15.5C6.2 15.5 6 15.5 6 15.5"
      stroke="black"
      stroke-linecap="round"
      stroke-linejoin="round"
    />
    <path
      d="M4 15.5C3.2 15.5 3 15.5 3 15.5"
      stroke="black"
      stroke-linecap="round"
      stroke-linejoin="round"
    />
    <path
      d="M21 15.5C20.2 15.5 20 15.5 20 15.5"
      stroke="black"
      stroke-linecap="round"
      stroke-linejoin="round"
    />
    <path
      d="M8 9.5C4 9.5 3 9.5 3 9.5"
      stroke="black"
      stroke-linecap="round"
      stroke-linejoin="round"
    />
    <path
      d="M5 11.5C3.4 11.5 3 11.5 3 11.5"
      stroke="black"
      stroke-linecap="round"
      stroke-linejoin="round"
    />
    <path
      d="M7 13.5C3.8 13.5 3 13.5 3 13.5"
      stroke="black"
      stroke-linecap="round"
      stroke-linejoin="round"
    />
    <path
      d="M15 15.5C10.2 15.5 9 15.5 9 15.5"
      stroke="black"
      stroke-linecap="round"
      stroke-linejoin="round"
    />
    <path
      d="M20.5 9.5V13.5H18.5"
      stroke="black"
      stroke-linecap="round"
      stroke-linejoin="round"
    />
    <path
      d="M9.5 9.5H11.5M13.5 9.5H11.5M11.5 9.5V14"
      stroke="black"
      stroke-linecap="round"
      stroke-linejoin="round"
    />
  </svg>